<?xml version="1.0" encoding="UTF-8"?>
<svg xmlns="http://www.w3.org/2000/svg" width="300" height="300" viewBox="0 0 300 300" fill="none">
  <!-- Simplified Ashoka Chakra emblem -->
  <circle cx="150" cy="150" r="120" fill="#ffffff" stroke="#0047AB" stroke-width="2"/>
  <circle cx="150" cy="150" r="40" fill="#0047AB"/>
  <circle cx="150" cy="150" r="35" fill="#ffffff"/>
  
  <!-- 24 spokes of the wheel -->
  <g stroke="#0047AB" stroke-width="4">
    <!-- 24 spokes -->
    <line x1="150" y1="30" x2="150" y2="70" />
    <line x1="150" y1="230" x2="150" y2="270" />
    <line x1="30" y1="150" x2="70" y2="150" />
    <line x1="230" y1="150" x2="270" y2="150" />
    
    <!-- Diagonal spokes -->
    <line x1="65" y1="65" x2="95" y2="95" />
    <line x1="205" y1="205" x2="235" y2="235" />
    <line x1="65" y1="235" x2="95" y2="205" />
    <line x1="205" y1="95" x2="235" y2="65" />
    
    <!-- More spokes -->
    <line x1="115" y1="40" x2="130" y2="80" />
    <line x1="185" y1="40" x2="170" y2="80" />
    <line x1="40" y1="115" x2="80" y2="130" />
    <line x1="40" y1="185" x2="80" y2="170" />
    <line x1="115" y1="260" x2="130" y2="220" />
    <line x1="185" y1="260" x2="170" y2="220" />
    <line x1="260" y1="115" x2="220" y2="130" />
    <line x1="260" y1="185" x2="220" y2="170" />
    
    <!-- Additional spokes -->
    <line x1="82" y1="50" x2="110" y2="85" />
    <line x1="218" y1="250" x2="190" y2="215" />
    <line x1="50" y1="82" x2="85" y2="110" />
    <line x1="250" y1="218" x2="215" y2="190" />
    <line x1="50" y1="218" x2="85" y2="190" />
    <line x1="250" y1="82" x2="215" y2="110" />
    <line x1="82" y1="250" x2="110" y2="215" />
    <line x1="218" y1="50" x2="190" y2="85" />
  </g>
</svg>